<svg width="240" height="64" viewBox="0 0 240 64" fill="none" xmlns="http://www.w3.org/2000/svg">
<path d="M12.1769 13.0951H16.3468L28.0101 40.1839H22.5077L19.9838 33.9917H8.24213L5.79661 40.1683H0.403931L12.1769 13.0951ZM18.3064 29.8375L14.1365 18.817L9.88816 29.8375H18.3064Z" fill="#FCFAF7"/>
<path d="M34.8607 13.0951H43.9687C45.2699 13.0951 46.524 13.2205 47.7311 13.4713C48.9381 13.7221 50.0041 14.1611 50.929 14.7568C51.854 15.3525 52.5751 16.152 53.1237 17.171C53.6724 18.1742 53.9389 19.4284 53.9389 20.9333C53.9389 22.642 53.6411 24.0215 53.061 25.0719C52.481 26.1222 51.6815 26.9217 50.6939 27.5017C49.7063 28.0817 48.5462 28.458 47.2294 28.6618C45.9126 28.8656 44.5487 28.9753 43.1222 28.9753H39.6734V40.1839H34.8607V13.0951ZM42.5892 24.8367C43.279 24.8367 43.9844 24.8054 44.7369 24.7583C45.4737 24.7113 46.1634 24.5545 46.7905 24.3037C47.4175 24.0529 47.9192 23.661 48.3268 23.1593C48.7187 22.642 48.9225 21.9366 48.9225 21.0117C48.9225 20.1652 48.75 19.5067 48.3895 19.0051C48.0289 18.5035 47.5743 18.1272 47.0099 17.8607C46.4456 17.5942 45.8185 17.4218 45.1288 17.3434C44.439 17.265 43.7806 17.2337 43.1379 17.2337H39.6891V24.8524H42.5892V24.8367Z" fill="#FCFAF7"/>
<path d="M62.0592 13.0951H71.1672C72.4683 13.0951 73.7224 13.2205 74.9295 13.4713C76.1366 13.7221 77.2026 14.1611 78.1275 14.7568C79.0524 15.3525 79.7735 16.152 80.3222 17.171C80.8709 18.1742 81.1374 19.4284 81.1374 20.9333C81.1374 22.642 80.8395 24.0215 80.2595 25.0719C79.6795 26.1222 78.88 26.9217 77.8924 27.5017C76.9048 28.0817 75.7447 28.458 74.4279 28.6618C73.1111 28.8656 71.7472 28.9753 70.3207 28.9753H66.8719V40.1839H62.0592V13.0951ZM69.7877 24.8367C70.4774 24.8367 71.1829 24.8054 71.9353 24.7583C72.6721 24.7113 73.3619 24.5545 73.9889 24.3037C74.616 24.0529 75.1176 23.661 75.5252 23.1593C75.9171 22.642 76.1209 21.9366 76.1209 21.0117C76.1209 20.1652 75.9485 19.5067 75.5879 19.0051C75.2274 18.5035 74.7728 18.1272 74.2084 17.8607C73.6441 17.5942 73.017 17.4218 72.3273 17.3434C71.6375 17.265 70.9791 17.2337 70.3363 17.2337H66.8875V24.8524H69.7877V24.8367Z" fill="#FCFAF7"/>
<path d="M89.2578 13.0951H94.0705V35.8102H105.577V40.1683H89.2578V13.0951Z" fill="#FCFAF7"/>
<path d="M112.819 13.0951H117.632V40.1839H112.819V13.0951Z" fill="#FCFAF7"/>
<path d="M145.975 19.444C144.987 18.3781 144.016 17.6569 143.091 17.2964C142.166 16.9358 141.225 16.7634 140.285 16.7634C138.889 16.7634 137.62 17.0142 136.475 17.5159C135.346 18.0175 134.359 18.7073 133.544 19.5851C132.729 20.463 132.101 21.4977 131.647 22.6577C131.208 23.8334 130.973 25.0876 130.973 26.4514C130.973 27.9093 131.192 29.2418 131.647 30.4646C132.086 31.6873 132.729 32.7533 133.544 33.6469C134.359 34.5404 135.331 35.2459 136.475 35.7475C137.604 36.2648 138.874 36.5157 140.285 36.5157C141.382 36.5157 142.448 36.2492 143.483 35.7318C144.517 35.2145 145.473 34.368 146.367 33.2236L150.349 36.061C149.126 37.7384 147.637 38.9612 145.881 39.7293C144.125 40.4975 142.244 40.8737 140.253 40.8737C138.168 40.8737 136.24 40.5288 134.5 39.8547C132.76 39.1806 131.255 38.2244 129.985 36.986C128.715 35.7475 127.728 34.2583 127.022 32.5338C126.301 30.7938 125.956 28.8812 125.956 26.7649C125.956 24.6016 126.317 22.6264 127.022 20.8549C127.743 19.0835 128.731 17.5786 129.985 16.3244C131.255 15.0703 132.744 14.1141 134.5 13.44C136.24 12.7659 138.168 12.421 140.253 12.421C142.087 12.421 143.796 12.7502 145.364 13.393C146.931 14.0357 148.389 15.1487 149.737 16.7007L145.975 19.444Z" fill="#FCFAF7"/>
<path d="M155.961 26.7492C155.961 24.5859 156.321 22.6107 157.027 20.8392C157.748 19.0678 158.736 17.5629 159.99 16.3088C161.26 15.0546 162.749 14.0984 164.505 13.4243C166.245 12.7502 168.173 12.4053 170.258 12.4053C172.374 12.374 174.318 12.6875 176.074 13.3459C177.83 13.9887 179.35 14.9449 180.62 16.199C181.89 17.4531 182.893 18.9581 183.598 20.7138C184.32 22.4696 184.664 24.4448 184.664 26.6082C184.664 28.7245 184.304 30.6527 183.598 32.3771C182.877 34.1172 181.89 35.6064 180.62 36.8449C179.35 38.099 177.83 39.0709 176.074 39.7763C174.318 40.4818 172.374 40.8423 170.258 40.8737C168.173 40.8737 166.245 40.5288 164.505 39.8547C162.764 39.1806 161.26 38.2244 159.99 36.9859C158.72 35.7475 157.732 34.2582 157.027 32.5338C156.321 30.7938 155.961 28.8656 155.961 26.7492ZM161.009 26.4357C161.009 27.8936 161.228 29.2261 161.683 30.4489C162.122 31.6716 162.764 32.7376 163.58 33.6312C164.395 34.5247 165.367 35.2302 166.511 35.7318C167.64 36.2492 168.91 36.5 170.321 36.5C171.716 36.5 173.001 36.2492 174.146 35.7318C175.29 35.2145 176.278 34.5247 177.093 33.6312C177.908 32.7376 178.535 31.6873 178.99 30.4489C179.429 29.2261 179.664 27.8936 179.664 26.4357C179.664 25.0875 179.444 23.8178 178.99 22.642C178.551 21.4663 177.908 20.4473 177.093 19.5695C176.278 18.6916 175.29 18.0018 174.146 17.5002C173.001 16.9985 171.716 16.7477 170.321 16.7477C168.925 16.7477 167.656 16.9985 166.511 17.5002C165.382 18.0018 164.395 18.6916 163.58 19.5695C162.764 20.4473 162.137 21.482 161.683 22.642C161.228 23.8178 161.009 25.0875 161.009 26.4357Z" fill="#FCFAF7"/>
<path d="M191.546 36.2647C191.797 37.801 192.597 39.353 195.309 39.353C197.268 39.353 198.319 38.3967 198.319 36.9388C198.319 35.8258 197.613 35.089 196.14 34.2425L195.277 33.7408C193.992 32.9884 192.534 32.0478 192.534 30.3704C192.534 28.4579 194.431 26.8589 197.723 26.8589C199.479 26.8589 200.921 27.2351 201.548 27.3762C201.344 28.16 201.203 29.2731 201.078 30.198L200.294 30.245C200.294 28.7714 199.729 27.533 197.425 27.533C195.513 27.533 194.619 28.5519 194.619 29.806C194.619 30.9034 195.418 31.5461 196.767 32.2986L197.66 32.8159C199.385 33.8035 200.576 34.8068 200.576 36.2961C200.576 38.4281 198.193 40.0584 195.011 40.0584C193.004 40.0584 191.233 39.4627 190.621 39.1335C190.653 38.6475 190.747 37.3621 190.778 36.3118L191.546 36.2647Z" fill="#BF0F00"/>
<path d="M209.433 31.938C208.963 31.9694 207.677 32.0478 206.941 32.0478C205.812 36.155 205.53 37.1269 205.389 37.8167C205.248 38.4438 205.404 38.6162 205.624 38.6162C206.125 38.6162 206.941 38.1302 207.834 37.4091L208.179 37.9107C207.348 38.8827 205.389 40.0114 204.229 40.0114C203.304 40.0114 202.865 39.4627 203.507 37.2053L204.95 32.0634H202.959L202.943 31.891L203.68 31.2326H205.185L205.749 29.1633C206.235 28.9595 207.348 28.4265 207.913 28.0503L208.163 28.16C207.866 28.9282 207.458 30.2293 207.176 31.2326H209.919L209.433 31.938Z" fill="#BF0F00"/>
<path d="M210.452 32.9571C211.283 32.0165 212.725 30.9976 213.666 30.9976C214.606 30.9976 214.904 32.2203 215.061 33.929C215.233 35.5907 215.327 37.2838 215.421 38.5066C216.582 37.1584 218.902 34.5718 218.886 33.1766C218.886 32.769 218.635 32.3928 218.51 32.1733C218.384 31.9381 218.384 31.7657 218.604 31.5462C218.902 31.2484 219.435 31.0132 219.842 31.0132C220.438 31.0132 220.798 31.4365 220.814 32.1106C220.814 32.6593 220.548 33.4744 219.921 34.368C217.883 37.2524 213.87 41.6105 210.907 44.1501L208.179 44.6831L207.944 44.2128C210.233 43.0841 212.333 41.5164 213.603 40.2153C213.587 38.7103 213.274 35.8886 213.039 34.0701C212.882 32.863 212.631 32.4555 212.38 32.4555C212.114 32.4555 211.471 32.8787 210.86 33.4588L210.452 32.9571Z" fill="#BF0F00"/>
<path d="M226.724 37.9891C225.423 39.3216 223.746 40.0114 222.978 40.0114C222.319 40.0114 221.927 39.6195 222.413 37.754C223.275 34.556 224.247 30.9975 225.047 28.0346C225.251 27.2508 225.157 27.1724 224.263 27.1097C223.997 27.094 223.558 27.047 223.369 27.047L223.526 26.514C224.702 26.4043 225.987 26.2161 226.693 26.0124C227.132 25.8869 227.304 25.8556 227.461 25.8556C227.696 25.8556 227.696 26.0437 227.586 26.4827C226.489 30.1666 225.266 34.6657 224.467 37.7383C224.326 38.2713 224.341 38.4594 224.545 38.4594C224.765 38.4594 225.454 38.1929 226.317 37.4561L226.724 37.9891Z" fill="#BF0F00"/>
<path d="M231.49 40.0115C230.236 40.0115 228.605 39.4471 228.605 37.1114C228.605 35.2929 229.609 33.1766 231.568 32.0479C232.681 31.4365 233.92 30.9976 235.048 30.9976C236.538 30.9976 237.353 31.7187 237.353 32.5809C237.353 34.5404 233.653 35.434 230.91 35.8102C230.879 36.0297 230.863 36.4216 230.863 36.6097C230.863 37.7227 231.27 38.7731 232.775 38.7731C233.92 38.7731 235.252 38.2244 236.475 37.2368L236.851 37.7541C234.845 39.5569 232.854 40.0115 231.49 40.0115ZM231.004 35.1518C234.437 34.6502 235.284 33.7723 235.299 32.8474C235.299 32.189 234.813 31.8441 234.061 31.8441C233.324 31.8441 231.694 32.2987 231.004 35.1518Z" fill="#BF0F00"/>
<path d="M88.9913 52.8818H237.337" stroke="#FCFAF7" stroke-width="0.627056" stroke-miterlimit="10"/>
<path d="M2.1127 5.47647C1.68944 5.24132 1.36023 4.92779 1.12508 4.53588C0.889938 4.1283 0.764526 3.68936 0.764526 3.18771C0.764526 2.68607 0.889938 2.24713 1.12508 1.83954C1.36023 1.43196 1.68944 1.11843 2.1127 0.89896C2.53596 0.663814 3.00625 0.554077 3.52358 0.554077C4.0409 0.554077 4.51119 0.663814 4.91877 0.89896C5.34204 1.13411 5.65557 1.44763 5.90639 1.83954C6.14154 2.24713 6.26695 2.68607 6.26695 3.18771C6.26695 3.68936 6.14154 4.14397 5.90639 4.53588C5.67124 4.94347 5.34204 5.257 4.91877 5.47647C4.49551 5.71161 4.0409 5.82135 3.52358 5.82135C3.00625 5.82135 2.53596 5.71161 2.1127 5.47647ZM4.54254 4.91212C4.84039 4.73968 5.07554 4.50453 5.26366 4.20668C5.4361 3.90883 5.53015 3.56395 5.53015 3.18771C5.53015 2.81148 5.4361 2.48227 5.26366 2.16875C5.09122 1.87089 4.85607 1.63575 4.54254 1.46331C4.24469 1.29087 3.89981 1.21249 3.52358 1.21249C3.14734 1.21249 2.80246 1.29087 2.48893 1.46331C2.1754 1.63575 1.94026 1.87089 1.76782 2.16875C1.59538 2.4666 1.50132 2.81148 1.50132 3.18771C1.50132 3.56395 1.59538 3.89315 1.76782 4.20668C1.94026 4.50453 2.1754 4.73968 2.48893 4.91212C2.80246 5.08456 3.13166 5.16294 3.52358 5.16294C3.89981 5.16294 4.24469 5.08456 4.54254 4.91212Z" fill="#FCFAF7"/>
<path d="M11.6597 5.22574C11.2521 5.57062 10.6877 5.77441 9.95093 5.80577V7.18529H9.26117V5.80577C8.52438 5.75874 7.96002 5.57062 7.56811 5.22574C7.16053 4.88086 6.97241 4.39489 6.97241 3.79919C6.97241 3.18781 7.1762 2.71751 7.56811 2.38831C7.96002 2.05911 8.54005 1.85531 9.27685 1.82396V0.303345H9.96661V1.82396C10.7034 1.87099 11.2677 2.05911 11.6753 2.38831C12.0829 2.73319 12.2867 3.20348 12.2867 3.79919C12.2554 4.41057 12.0672 4.88086 11.6597 5.22574ZM8.06976 4.7868C8.33626 5.02194 8.74385 5.16303 9.26117 5.19439V2.45101C8.72817 2.48237 8.32058 2.62346 8.05408 2.84292C7.78758 3.07807 7.66217 3.3916 7.66217 3.79919C7.66217 4.22245 7.80326 4.55165 8.06976 4.7868ZM11.5656 3.79919C11.5656 3.3916 11.4245 3.06239 11.158 2.84292C10.8915 2.60778 10.4839 2.48237 9.95093 2.45101V5.19439C11.0326 5.116 11.5656 4.64571 11.5656 3.79919Z" fill="#FCFAF7"/>
<path d="M13.2585 1.85535H13.964V4.69278L16.3625 1.85535H17.0052V5.75878H16.2998V2.92135L13.917 5.75878H13.2742V1.85535H13.2585Z" fill="#FCFAF7"/>
<path d="M22.5391 5.14739V6.69936H21.865V5.75878H18.3691V1.85535H19.0746V5.14739H21.2066V1.85535H21.912V5.14739H22.5391Z" fill="#FCFAF7"/>
<path d="M23.464 1.85535H24.1694V4.69278L26.5679 1.85535H27.2106V5.75878H26.4895V2.92135L24.1067 5.75878H23.464V1.85535Z" fill="#FCFAF7"/>
<path d="M31.208 2.21582C31.4902 2.48231 31.6313 2.87423 31.6313 3.40722V5.75868H30.9572V5.24136C30.8318 5.42948 30.675 5.55489 30.4555 5.66462C30.2361 5.75868 29.9852 5.80571 29.6717 5.80571C29.2328 5.80571 28.8879 5.69598 28.6214 5.49218C28.3549 5.28839 28.2295 5.00622 28.2295 4.66134C28.2295 4.31645 28.3549 4.03428 28.6057 3.83048C28.8565 3.62669 29.2485 3.51696 29.7971 3.51696H30.9102V3.37587C30.9102 3.07802 30.8161 2.84287 30.6437 2.67043C30.4712 2.51367 30.2047 2.41961 29.8598 2.41961C29.6247 2.41961 29.4052 2.45096 29.1858 2.52934C28.9663 2.60773 28.7782 2.70178 28.6214 2.84287L28.3236 2.30987C28.5273 2.15311 28.7625 2.0277 29.0447 1.93364C29.3268 1.85525 29.6247 1.80823 29.9382 1.80823C30.5026 1.8239 30.9258 1.94932 31.208 2.21582ZM30.5026 5.0846C30.7064 4.95918 30.8474 4.78675 30.9258 4.56728V4.0186H29.8285C29.2328 4.0186 28.9349 4.22239 28.9349 4.62998C28.9349 4.83377 29.0133 4.97486 29.1701 5.10027C29.3268 5.21001 29.5306 5.27271 29.7971 5.27271C30.0793 5.25704 30.3145 5.19433 30.5026 5.0846Z" fill="#FCFAF7"/>
<path d="M36.2716 1.85535V5.75878H35.5661V2.46673H33.8888L33.8417 3.32893C33.8104 3.86193 33.7634 4.28519 33.7007 4.64575C33.6379 4.99063 33.5125 5.27281 33.3558 5.49228C33.199 5.69607 32.9795 5.8058 32.6974 5.8058C32.572 5.8058 32.4309 5.79013 32.2584 5.7431L32.3055 5.14739C32.3682 5.16307 32.4309 5.16307 32.4779 5.16307C32.6817 5.16307 32.8228 5.08469 32.9168 4.91225C33.0109 4.73981 33.0736 4.53601 33.105 4.30087C33.1363 4.06572 33.1677 3.73652 33.1833 3.29758L33.246 1.85535H36.2716Z" fill="#FCFAF7"/>
<path d="M40.5826 3.51705C40.8491 3.73652 40.9745 4.05004 40.9745 4.45763C40.9745 4.88089 40.8334 5.2101 40.5513 5.42957C40.2691 5.66472 39.8615 5.77445 39.3442 5.75878H37.6511V1.85535H38.3566V3.17217H39.4539C39.9399 3.18785 40.3161 3.29758 40.5826 3.51705ZM40.0026 5.03766C40.1593 4.91225 40.2534 4.70845 40.2534 4.44195C40.2534 4.19113 40.175 4.00302 40.0183 3.87761C39.8615 3.7522 39.6107 3.70516 39.2815 3.68949L38.3566 3.67381V5.2101H39.2815C39.595 5.24145 39.8301 5.17875 40.0026 5.03766Z" fill="#FCFAF7"/>
<path d="M41.868 1.85535H42.5735V3.51705H44.7995V1.85535H45.505V5.75878H44.7995V4.12843H42.5735V5.75878H41.868V1.85535Z" fill="#FCFAF7"/>
<path d="M49.7846 3.51705C50.0511 3.73652 50.1765 4.05004 50.1765 4.45763C50.1765 4.88089 50.0354 5.2101 49.7533 5.42957C49.4711 5.66472 49.0635 5.77445 48.5462 5.75878H46.9001V1.85535H47.6056V3.17217H48.6559C49.1419 3.18785 49.5181 3.29758 49.7846 3.51705ZM49.2046 5.03766C49.3613 4.91225 49.4554 4.70845 49.4554 4.44195C49.4554 4.19113 49.377 4.00302 49.2046 3.87761C49.0478 3.7522 48.797 3.70516 48.4678 3.68949L47.5899 3.67381V5.2101H48.4678C48.797 5.24145 49.0478 5.17875 49.2046 5.03766ZM50.7565 1.85535H51.462V5.75878H50.7565V1.85535Z" fill="#FCFAF7"/>
<path d="M52.8416 1.85533H53.547V4.69276L55.9455 1.85533H56.5882V5.75875H55.8828V2.92132L53.5 5.75875H52.8572V1.85533H52.8416ZM53.8135 1.08718C53.6097 0.914742 53.5156 0.663921 53.5 0.334717H53.9859C53.9859 0.522834 54.0486 0.663919 54.174 0.773654C54.2995 0.883389 54.4562 0.946096 54.66 0.946096C54.8638 0.946096 55.0206 0.883389 55.146 0.773654C55.2714 0.663919 55.3341 0.522834 55.3341 0.334717H55.8201C55.8201 0.663921 55.7103 0.914742 55.5065 1.08718C55.3027 1.25962 55.0206 1.35368 54.66 1.35368C54.2995 1.35368 54.0173 1.25962 53.8135 1.08718Z" fill="#FCFAF7"/>
<path d="M63.5485 1.85535V5.75878H62.8431V2.46673H60.6327V5.75878H59.9272V1.85535H63.5485Z" fill="#FCFAF7"/>
<path d="M68.0006 2.07475C68.2985 2.24719 68.5336 2.48234 68.706 2.78019C68.8785 3.07804 68.9569 3.42292 68.9569 3.81483C68.9569 4.20674 68.8785 4.55162 68.706 4.86515C68.5336 5.163 68.2985 5.39815 68.0006 5.57059C67.7028 5.74303 67.3579 5.82141 66.9816 5.82141C66.6995 5.82141 66.4486 5.77438 66.2135 5.66465C65.9784 5.55491 65.7902 5.39815 65.6178 5.19436V7.21661H64.9124V1.88663H65.5864V2.49801C65.7432 2.27854 65.947 2.12178 66.1821 2.01204C66.4173 1.90231 66.6838 1.83961 66.9816 1.83961C67.3736 1.82393 67.7028 1.90231 68.0006 2.07475ZM67.6087 5.02191C67.8125 4.91218 67.9693 4.73974 68.079 4.53595C68.1887 4.33215 68.2514 4.08133 68.2514 3.81483C68.2514 3.54833 68.1887 3.29751 68.079 3.09372C67.9693 2.88993 67.8125 2.71748 67.6087 2.60775C67.4049 2.49801 67.1854 2.43531 66.9346 2.43531C66.6838 2.43531 66.4643 2.49801 66.2605 2.60775C66.0567 2.71748 65.9 2.88993 65.7902 3.09372C65.6805 3.29751 65.6178 3.53265 65.6178 3.81483C65.6178 4.08133 65.6805 4.33215 65.7902 4.53595C65.9 4.73974 66.0567 4.91218 66.2605 5.02191C66.4643 5.13165 66.6838 5.19436 66.9346 5.19436C67.1854 5.19436 67.4049 5.13165 67.6087 5.02191Z" fill="#FCFAF7"/>
<path d="M73.5031 4.04997H70.3364C70.3834 4.39485 70.5245 4.67703 70.791 4.88082C71.0419 5.08461 71.3711 5.19435 71.7473 5.19435C72.2176 5.19435 72.5938 5.03759 72.876 4.72406L73.2679 5.17867C73.0955 5.38247 72.876 5.53923 72.6095 5.64896C72.343 5.7587 72.0608 5.80573 71.7316 5.80573C71.324 5.80573 70.9478 5.72735 70.6343 5.55491C70.3207 5.38246 70.0699 5.14732 69.8975 4.84947C69.725 4.55162 69.631 4.20673 69.631 3.81482C69.631 3.43859 69.7094 3.09371 69.8818 2.79586C70.0542 2.498 70.2894 2.24718 70.5872 2.09042C70.8851 1.91798 71.2143 1.8396 71.5905 1.8396C71.9668 1.8396 72.296 1.91798 72.5938 2.09042C72.8917 2.26286 73.1111 2.498 73.2836 2.79586C73.4403 3.09371 73.5344 3.45427 73.5344 3.84618C73.5187 3.89321 73.5187 3.95591 73.5031 4.04997ZM70.7283 2.73315C70.4932 2.93695 70.3678 3.20345 70.3207 3.54833H72.829C72.7819 3.21912 72.6565 2.95262 72.4214 2.74883C72.1862 2.54504 71.9041 2.4353 71.5749 2.4353C71.2456 2.41962 70.9635 2.51368 70.7283 2.73315Z" fill="#FCFAF7"/>
<path d="M78.5195 5.14739V6.66801H77.8611V5.75878H74.6004V6.66801H73.9263V5.14739H74.1301C74.3809 5.13172 74.5533 4.95928 74.6474 4.6144C74.7414 4.26951 74.8042 3.79923 74.8355 3.17217L74.8982 1.85535H77.9238V5.14739H78.5195ZM75.3685 4.44195C75.3058 4.77116 75.1961 4.99063 75.0393 5.13172H77.234V2.46673H75.5409L75.5096 3.2192C75.4626 3.72084 75.4312 4.12843 75.3685 4.44195Z" fill="#FCFAF7"/>
<path d="M80.0714 5.55496C79.7579 5.38252 79.5227 5.14737 79.3346 4.84952C79.1622 4.55167 79.0681 4.20679 79.0681 3.81488C79.0681 3.42297 79.1622 3.09376 79.3346 2.78024C79.507 2.48238 79.7579 2.24724 80.0714 2.0748C80.3849 1.90236 80.7455 1.82397 81.1374 1.82397C81.498 1.82397 81.8115 1.90236 82.078 2.04344C82.3602 2.18453 82.564 2.38832 82.7207 2.65482L82.1877 2.99971C82.0623 2.81159 81.9055 2.6705 81.7331 2.57644C81.545 2.48238 81.3569 2.43535 81.1217 2.43535C80.8709 2.43535 80.6357 2.49806 80.432 2.6078C80.2282 2.71753 80.0714 2.87429 79.946 3.09376C79.8363 3.29756 79.7736 3.54838 79.7736 3.81488C79.7736 4.09705 79.8363 4.3322 79.946 4.53599C80.0557 4.73978 80.2282 4.91223 80.432 5.02196C80.6357 5.1317 80.8709 5.1944 81.1217 5.1944C81.3412 5.1944 81.545 5.14737 81.7331 5.05332C81.9212 4.95926 82.0623 4.81817 82.1877 4.63005L82.7207 4.97493C82.564 5.24143 82.3602 5.44523 82.078 5.60199C81.7958 5.74308 81.4823 5.82146 81.1374 5.82146C80.7455 5.80578 80.3849 5.7274 80.0714 5.55496Z" fill="#FCFAF7"/>
<path d="M86.5145 2.48235H85.0879V5.7744H84.3825V2.48235H82.9559V1.87097H86.5145V2.48235Z" fill="#FCFAF7"/>
<path d="M89.8693 2.21582C90.1514 2.48231 90.2925 2.87423 90.2925 3.40722V5.75868H89.6184V5.24136C89.493 5.42948 89.3363 5.55489 89.1168 5.66462C88.8973 5.75868 88.6465 5.80571 88.333 5.80571C87.894 5.80571 87.5492 5.69598 87.2827 5.49218C87.0162 5.28839 86.8907 5.00622 86.8907 4.66134C86.8907 4.31645 87.0162 4.03428 87.267 3.83048C87.5178 3.62669 87.9097 3.51696 88.4584 3.51696H89.5714V3.37587C89.5714 3.07802 89.4774 2.84287 89.3049 2.67043C89.1325 2.51367 88.866 2.41961 88.5211 2.41961C88.286 2.41961 88.0665 2.45096 87.847 2.52934C87.6275 2.60773 87.4394 2.70178 87.2827 2.84287L86.9848 2.30987C87.1886 2.15311 87.4237 2.0277 87.7059 1.93364C87.9881 1.85525 88.286 1.80823 88.5995 1.80823C89.1638 1.8239 89.5714 1.94932 89.8693 2.21582ZM89.1638 5.0846C89.3676 4.95918 89.5087 4.78675 89.5871 4.56728V4.0186H88.4897C87.894 4.0186 87.5962 4.22239 87.5962 4.62998C87.5962 4.83377 87.6746 4.97486 87.8313 5.10027C87.9881 5.21001 88.1919 5.27271 88.4584 5.27271C88.7249 5.25704 88.96 5.19433 89.1638 5.0846Z" fill="#FCFAF7"/>
<path d="M94.9796 4.69272C94.9796 5.03761 94.8542 5.30411 94.5877 5.49222C94.3369 5.68034 93.945 5.7744 93.4277 5.7744H91.5465V1.87097H93.365C93.8196 1.87097 94.1801 1.96503 94.4466 2.13747C94.7131 2.30991 94.8386 2.56073 94.8386 2.87426C94.8386 3.07805 94.7759 3.26617 94.6661 3.40726C94.5564 3.56403 94.3996 3.67376 94.2115 3.75214C94.7288 3.86188 94.9796 4.1754 94.9796 4.69272ZM92.2676 3.53267H93.3336C93.6001 3.53267 93.8039 3.48564 93.945 3.39158C94.0861 3.29753 94.1488 3.15644 94.1488 2.96832C94.1488 2.59209 93.8666 2.40397 93.3179 2.40397H92.2519V3.53267H92.2676ZM94.0547 5.08464C94.1958 4.99058 94.2742 4.84949 94.2742 4.6457C94.2742 4.4419 94.2115 4.30082 94.0704 4.19108C93.9293 4.09702 93.7255 4.04999 93.4277 4.04999H92.2519V5.22572H93.3807C93.6942 5.21005 93.9136 5.16302 94.0547 5.08464Z" fill="#FCFAF7"/>
<path d="M96.0928 1.85535H96.7982V4.69278L99.1967 1.85535H99.8394V5.75878H99.134V2.92135L96.7512 5.75878H96.0928V1.85535Z" fill="#FCFAF7"/>
<path d="M104.119 2.48235H102.693V5.7744H101.987V2.48235H100.561V1.87097H104.119V2.48235Z" fill="#FCFAF7"/>
<path d="M108.179 4.04997H105.013C105.06 4.39485 105.201 4.67703 105.467 4.88082C105.718 5.08461 106.047 5.19435 106.423 5.19435C106.894 5.19435 107.27 5.03759 107.552 4.72406L107.944 5.17867C107.772 5.38247 107.552 5.53923 107.286 5.64896C107.019 5.7587 106.737 5.80573 106.408 5.80573C106 5.80573 105.624 5.72735 105.31 5.55491C104.997 5.38246 104.746 5.14732 104.574 4.84947C104.401 4.55162 104.307 4.20673 104.307 3.81482C104.307 3.43859 104.386 3.09371 104.558 2.79586C104.73 2.498 104.966 2.24718 105.263 2.09042C105.561 1.91798 105.89 1.8396 106.267 1.8396C106.643 1.8396 106.972 1.91798 107.27 2.09042C107.568 2.26286 107.787 2.498 107.96 2.79586C108.116 3.09371 108.211 3.45427 108.211 3.84618C108.195 3.89321 108.195 3.95591 108.179 4.04997ZM105.42 2.73315C105.185 2.93695 105.06 3.20345 105.013 3.54833H107.521C107.474 3.21912 107.348 2.95262 107.113 2.74883C106.878 2.54504 106.596 2.4353 106.267 2.4353C105.922 2.41962 105.64 2.51368 105.42 2.73315Z" fill="#FCFAF7"/>
<path d="M112.584 1.85535V5.75878H111.879V2.46673H110.202L110.154 3.32893C110.123 3.86193 110.076 4.28519 110.013 4.64575C109.951 4.99063 109.825 5.27281 109.669 5.49228C109.512 5.69607 109.292 5.8058 109.01 5.8058C108.885 5.8058 108.744 5.79013 108.571 5.7431L108.618 5.14739C108.681 5.16307 108.744 5.16307 108.791 5.16307C108.994 5.16307 109.136 5.08469 109.23 4.91225C109.324 4.73981 109.386 4.53601 109.418 4.30087C109.449 4.06572 109.48 3.73652 109.496 3.29758L109.559 1.85535H112.584Z" fill="#FCFAF7"/>
<path d="M116.895 3.51705C117.162 3.73652 117.287 4.05004 117.287 4.45763C117.287 4.88089 117.146 5.2101 116.864 5.42957C116.582 5.66472 116.174 5.77445 115.657 5.75878H113.964V1.85535H114.669V3.17217H115.767C116.253 3.18785 116.629 3.29758 116.895 3.51705ZM116.315 5.03766C116.472 4.91225 116.566 4.70845 116.566 4.44195C116.566 4.19113 116.488 4.00302 116.331 3.87761C116.174 3.7522 115.923 3.70516 115.594 3.68949L114.669 3.67381V5.2101H115.594C115.908 5.24145 116.143 5.17875 116.315 5.03766Z" fill="#FCFAF7"/>
<path d="M90.747 61.5981C90.3238 61.363 89.9789 61.0494 89.7437 60.6262C89.4929 60.2186 89.3832 59.7483 89.3832 59.2466C89.3832 58.745 89.5086 58.2747 89.7437 57.8671C89.9946 57.4595 90.3238 57.1303 90.747 56.8952C91.1703 56.66 91.6563 56.5503 92.1892 56.5503C92.7222 56.5503 93.1925 56.66 93.6158 56.8952C94.0391 57.1303 94.3683 57.4438 94.6191 57.8514C94.8542 58.259 94.9797 58.7136 94.9797 59.231C94.9797 59.7483 94.8542 60.2029 94.6191 60.6105C94.3839 61.0181 94.0391 61.3473 93.6158 61.5667C93.1925 61.8019 92.7066 61.9116 92.1892 61.9116C91.6406 61.943 91.1703 61.8332 90.747 61.5981ZM93.2239 61.0181C93.5374 60.8456 93.7726 60.5948 93.9607 60.2969C94.1331 59.9834 94.2272 59.6385 94.2272 59.2623C94.2272 58.8861 94.1331 58.5412 93.9607 58.2277C93.7883 57.9141 93.5374 57.679 93.2239 57.5066C92.9104 57.3341 92.5655 57.24 92.1892 57.24C91.813 57.24 91.4525 57.3341 91.1389 57.5066C90.8254 57.679 90.5746 57.9298 90.4021 58.2277C90.2297 58.5412 90.1356 58.8861 90.1356 59.2623C90.1356 59.6385 90.2297 59.9834 90.4021 60.2969C90.5746 60.6105 90.8254 60.8456 91.1389 61.0181C91.4525 61.1905 91.7973 61.2846 92.1892 61.2846C92.5812 61.2846 92.9104 61.1905 93.2239 61.0181Z" fill="#FCFAF7"/>
<path d="M99.0869 58.2747C99.3847 58.4471 99.6042 58.6666 99.761 58.9644C99.9177 59.2623 100.012 59.5915 100.012 59.9677C100.012 60.3596 99.9177 60.6888 99.7453 61.0024C99.5728 61.3002 99.322 61.5354 99.0085 61.6921C98.695 61.8646 98.3344 61.943 97.9425 61.943C97.2684 61.943 96.7354 61.7078 96.3748 61.2532C95.9986 60.7829 95.8262 60.1402 95.8262 59.2936C95.8262 58.4785 95.9986 57.8357 96.3278 57.3655C96.657 56.8952 97.1743 56.5973 97.8641 56.4405L99.6826 56.033L99.7923 56.6914L98.1149 57.0519C97.5976 57.1617 97.2057 57.3654 96.9549 57.6319C96.7041 57.9141 96.5473 58.306 96.5159 58.8234C96.6884 58.5725 96.9078 58.3687 97.1743 58.2277C97.4408 58.0866 97.7544 58.0239 98.0836 58.0239C98.4755 58.0395 98.8047 58.1179 99.0869 58.2747ZM98.6479 61.1748C98.8517 61.0651 98.9928 60.8926 99.1182 60.7045C99.228 60.5007 99.2907 60.2656 99.2907 60.0148C99.2907 59.6229 99.1652 59.2936 98.9301 59.0585C98.695 58.8234 98.3657 58.6979 97.9895 58.6979C97.6133 58.6979 97.2841 58.8234 97.0333 59.0585C96.7824 59.2936 96.6727 59.6229 96.6727 60.0148C96.6727 60.2813 96.7354 60.5007 96.8451 60.7045C96.9549 60.9083 97.1116 61.0651 97.3154 61.1748C97.5192 61.2846 97.7387 61.3473 97.9895 61.3473C98.2247 61.3473 98.4598 61.2846 98.6479 61.1748Z" fill="#FCFAF7"/>
<path d="M101.689 61.6609C101.376 61.4885 101.125 61.2377 100.952 60.9398C100.78 60.6263 100.686 60.2814 100.686 59.8895C100.686 59.4976 100.78 59.1527 100.952 58.8392C101.125 58.5256 101.376 58.2905 101.689 58.1181C102.003 57.9456 102.363 57.8516 102.755 57.8516C103.147 57.8516 103.508 57.9456 103.821 58.1181C104.135 58.2905 104.386 58.5256 104.558 58.8392C104.73 59.1527 104.824 59.4976 104.824 59.8895C104.824 60.2814 104.73 60.6263 104.558 60.9398C104.386 61.2533 104.135 61.4885 103.821 61.6609C103.508 61.8334 103.147 61.9274 102.755 61.9274C102.363 61.9274 102.003 61.849 101.689 61.6609ZM103.445 61.1279C103.649 61.0025 103.806 60.8458 103.915 60.6263C104.025 60.4068 104.088 60.1717 104.088 59.8895C104.088 59.6073 104.025 59.3722 103.915 59.1527C103.806 58.9332 103.633 58.7765 103.445 58.6667C103.241 58.557 103.006 58.4943 102.755 58.4943C102.504 58.4943 102.269 58.557 102.065 58.6667C101.862 58.7765 101.705 58.9489 101.579 59.1527C101.454 59.3722 101.407 59.6073 101.407 59.8895C101.407 60.1717 101.47 60.4068 101.579 60.6263C101.705 60.8458 101.862 61.0025 102.065 61.1279C102.269 61.2533 102.504 61.3004 102.755 61.3004C103.006 61.3004 103.241 61.2377 103.445 61.1279Z" fill="#FCFAF7"/>
<path d="M105.875 57.8984H106.596V60.7986L109.041 57.8984H109.7V61.8802H108.979V58.9801L106.533 61.8802H105.875V57.8984Z" fill="#FCFAF7"/>
<path d="M116.268 58.1181C116.582 58.2905 116.817 58.5256 116.989 58.8392C117.162 59.1527 117.256 59.4976 117.256 59.9052C117.256 60.3128 117.162 60.6576 116.989 60.9712C116.817 61.2847 116.582 61.5198 116.268 61.6923C115.955 61.8647 115.61 61.9431 115.234 61.9431C114.951 61.9431 114.685 61.8804 114.45 61.7707C114.215 61.6609 114.011 61.5042 113.838 61.2847V63.354H113.117V57.8986H113.807V58.5256C113.964 58.3062 114.168 58.1337 114.418 58.024C114.669 57.9143 114.936 57.8516 115.234 57.8516C115.626 57.8672 115.97 57.9456 116.268 58.1181ZM115.861 61.1279C116.064 61.0025 116.221 60.8458 116.347 60.6263C116.472 60.4068 116.519 60.1717 116.519 59.8895C116.519 59.6073 116.456 59.3722 116.347 59.1527C116.221 58.9332 116.064 58.7765 115.861 58.6667C115.657 58.557 115.422 58.4943 115.171 58.4943C114.92 58.4943 114.701 58.557 114.497 58.6667C114.293 58.7921 114.136 58.9489 114.011 59.1527C113.885 59.3565 113.838 59.6073 113.838 59.8895C113.838 60.1717 113.901 60.4068 114.011 60.6263C114.121 60.8458 114.293 61.0025 114.497 61.1279C114.701 61.2533 114.936 61.3004 115.187 61.3004C115.422 61.3004 115.657 61.2377 115.861 61.1279Z" fill="#FCFAF7"/>
<path d="M121.739 57.8984L119.811 62.2878C119.639 62.6954 119.435 62.9776 119.215 63.15C118.98 63.3225 118.714 63.4009 118.385 63.4009C118.196 63.4009 117.993 63.3695 117.82 63.3068C117.632 63.2441 117.491 63.15 117.366 63.0246L117.679 62.476C117.883 62.6641 118.118 62.7738 118.4 62.7738C118.573 62.7738 118.729 62.7268 118.839 62.6327C118.965 62.5387 119.059 62.3819 119.153 62.1624L119.278 61.8802L117.522 57.8984H118.275L119.67 61.0964L121.05 57.8984H121.739Z" fill="#FCFAF7"/>
<path d="M125.658 57.8984V61.8802H124.937V60.2813C124.498 60.485 124.075 60.5791 123.652 60.5791C123.15 60.5791 122.774 60.4694 122.507 60.2342C122.241 59.9991 122.1 59.6542 122.1 59.1996V57.8984H122.821V59.1526C122.821 59.4347 122.915 59.6385 123.087 59.7796C123.26 59.9207 123.495 59.9834 123.809 59.9834C124.153 59.9834 124.545 59.8893 124.937 59.7169V57.8984H125.658Z" fill="#FCFAF7"/>
<path d="M127.054 57.8984H127.775V59.5915H130.048V57.8984H130.769V61.8802H130.048V60.2029H127.775V61.8802H127.054V57.8984Z" fill="#FCFAF7"/>
<path d="M132.823 61.6609C132.509 61.4885 132.258 61.2377 132.086 60.9398C131.913 60.6263 131.819 60.2814 131.819 59.8895C131.819 59.4976 131.913 59.1527 132.086 58.8392C132.258 58.5256 132.509 58.2905 132.823 58.1181C133.136 57.9456 133.497 57.8516 133.888 57.8516C134.28 57.8516 134.641 57.9456 134.954 58.1181C135.268 58.2905 135.519 58.5256 135.691 58.8392C135.864 59.1527 135.958 59.4976 135.958 59.8895C135.958 60.2814 135.864 60.6263 135.691 60.9398C135.519 61.2533 135.268 61.4885 134.954 61.6609C134.641 61.8334 134.28 61.9274 133.888 61.9274C133.497 61.9274 133.136 61.849 132.823 61.6609ZM134.578 61.1279C134.782 61.0025 134.939 60.8458 135.049 60.6263C135.158 60.4068 135.221 60.1717 135.221 59.8895C135.221 59.6073 135.158 59.3722 135.049 59.1527C134.939 58.9332 134.766 58.7765 134.578 58.6667C134.374 58.557 134.139 58.4943 133.888 58.4943C133.638 58.4943 133.403 58.557 133.199 58.6667C132.995 58.7765 132.838 58.9489 132.713 59.1527C132.587 59.3722 132.54 59.6073 132.54 59.8895C132.54 60.1717 132.603 60.4068 132.713 60.6263C132.838 60.8458 132.995 61.0025 133.199 61.1279C133.403 61.2533 133.638 61.3004 133.888 61.3004C134.139 61.3004 134.374 61.2377 134.578 61.1279Z" fill="#FCFAF7"/>
<path d="M137.008 57.8984H137.729V60.7985L140.175 57.8984H140.833V61.8802H140.112V58.9801L137.667 61.8802H137.008V57.8984ZM138.011 57.1146C137.808 56.9421 137.698 56.6756 137.698 56.3464H138.184C138.184 56.5346 138.247 56.6756 138.372 56.801C138.497 56.9265 138.654 56.9735 138.858 56.9735C139.062 56.9735 139.234 56.9108 139.36 56.801C139.485 56.6913 139.548 56.5346 139.548 56.3464H140.049C140.049 56.6756 139.94 56.9421 139.72 57.1146C139.516 57.287 139.219 57.3811 138.858 57.3811C138.497 57.3811 138.215 57.287 138.011 57.1146Z" fill="#FCFAF7"/>
<path d="M147.402 58.1181C147.715 58.2905 147.95 58.5256 148.123 58.8392C148.295 59.1527 148.389 59.4976 148.389 59.9052C148.389 60.3128 148.295 60.6576 148.123 60.9712C147.95 61.2847 147.715 61.5198 147.402 61.6923C147.088 61.8647 146.743 61.9431 146.367 61.9431C146.085 61.9431 145.818 61.8804 145.583 61.7707C145.348 61.6609 145.144 61.5042 144.972 61.2847V63.354H144.251V57.8986H144.94V58.5256C145.097 58.3062 145.301 58.1337 145.552 58.024C145.803 57.9143 146.069 57.8516 146.367 57.8516C146.759 57.8672 147.104 57.9456 147.402 58.1181ZM146.994 61.1279C147.198 61.0025 147.355 60.8458 147.48 60.6263C147.605 60.4068 147.652 60.1717 147.652 59.8895C147.652 59.6073 147.59 59.3722 147.48 59.1527C147.355 58.9332 147.198 58.7765 146.994 58.6667C146.79 58.557 146.555 58.4943 146.304 58.4943C146.053 58.4943 145.834 58.557 145.63 58.6667C145.426 58.7921 145.27 58.9489 145.144 59.1527C145.019 59.3565 144.972 59.6073 144.972 59.8895C144.972 60.1717 145.034 60.4068 145.144 60.6263C145.254 60.8458 145.426 61.0025 145.63 61.1279C145.834 61.2533 146.069 61.3004 146.32 61.3004C146.571 61.3004 146.79 61.2377 146.994 61.1279Z" fill="#FCFAF7"/>
<path d="M152.089 58.2748C152.387 58.5413 152.528 58.9489 152.528 59.4819V61.8961H151.838V61.3631C151.713 61.5512 151.54 61.6923 151.321 61.7863C151.101 61.8804 150.835 61.9274 150.521 61.9274C150.082 61.9274 149.722 61.8177 149.455 61.5982C149.189 61.3788 149.048 61.0966 149.048 60.7517C149.048 60.4068 149.173 60.1246 149.424 59.9052C149.675 59.6857 150.082 59.5916 150.647 59.5916H151.791V59.4506C151.791 59.137 151.697 58.9019 151.524 58.7294C151.336 58.557 151.086 58.4786 150.725 58.4786C150.49 58.4786 150.255 58.51 150.035 58.5884C149.816 58.6667 149.612 58.7765 149.471 58.9019L149.173 58.3532C149.377 58.1808 149.628 58.0554 149.91 57.977C150.192 57.8829 150.506 57.8516 150.819 57.8516C151.368 57.8672 151.791 57.9927 152.089 58.2748ZM151.368 61.1906C151.571 61.0652 151.713 60.8928 151.807 60.6733V60.109H150.694C150.082 60.109 149.769 60.3128 149.769 60.7203C149.769 60.9241 149.847 61.0809 150.004 61.1906C150.161 61.3004 150.38 61.3631 150.647 61.3631C150.913 61.3631 151.164 61.316 151.368 61.1906Z" fill="#FCFAF7"/>
<path d="M156.854 58.2747C157.152 58.4471 157.372 58.6666 157.529 58.9644C157.685 59.2623 157.779 59.5915 157.779 59.9677C157.779 60.3596 157.685 60.6888 157.513 61.0024C157.34 61.3002 157.09 61.5354 156.776 61.6921C156.463 61.8646 156.102 61.943 155.71 61.943C155.036 61.943 154.503 61.7078 154.142 61.2532C153.766 60.7829 153.594 60.1402 153.594 59.2936C153.594 58.4785 153.766 57.8357 154.095 57.3655C154.425 56.8952 154.942 56.5973 155.632 56.4405L157.45 56.033L157.56 56.6914L155.883 57.0519C155.365 57.1617 154.973 57.3654 154.722 57.6319C154.472 57.9141 154.315 58.306 154.283 58.8234C154.456 58.5725 154.675 58.3687 154.942 58.2277C155.208 58.0866 155.522 58.0239 155.851 58.0239C156.227 58.0395 156.557 58.1179 156.854 58.2747ZM156.416 61.1748C156.619 61.0651 156.76 60.8926 156.886 60.7045C157.011 60.5164 157.058 60.2656 157.058 60.0148C157.058 59.6229 156.933 59.2936 156.698 59.0585C156.463 58.8234 156.133 58.6979 155.757 58.6979C155.381 58.6979 155.052 58.8234 154.801 59.0585C154.55 59.2936 154.44 59.6229 154.44 60.0148C154.44 60.2813 154.503 60.5007 154.613 60.7045C154.722 60.9083 154.879 61.0651 155.083 61.1748C155.287 61.2846 155.506 61.3473 155.757 61.3473C155.992 61.3473 156.212 61.2846 156.416 61.1748Z" fill="#FCFAF7"/>
<path d="M159.441 61.6609C159.128 61.4885 158.877 61.2377 158.704 60.9398C158.532 60.6263 158.438 60.2814 158.438 59.8895C158.438 59.4976 158.532 59.1527 158.704 58.8392C158.877 58.5256 159.128 58.2905 159.441 58.1181C159.755 57.9456 160.115 57.8516 160.507 57.8516C160.899 57.8516 161.259 57.9456 161.573 58.1181C161.887 58.2905 162.137 58.5256 162.31 58.8392C162.482 59.1527 162.576 59.4976 162.576 59.8895C162.576 60.2814 162.482 60.6263 162.31 60.9398C162.137 61.2533 161.887 61.4885 161.573 61.6609C161.259 61.8334 160.899 61.9274 160.507 61.9274C160.115 61.9274 159.755 61.849 159.441 61.6609ZM161.197 61.1279C161.401 61.0025 161.557 60.8458 161.667 60.6263C161.777 60.4068 161.84 60.1717 161.84 59.8895C161.84 59.6073 161.777 59.3722 161.667 59.1527C161.557 58.9332 161.385 58.7765 161.197 58.6667C160.993 58.557 160.758 58.4943 160.507 58.4943C160.256 58.4943 160.021 58.557 159.817 58.6667C159.613 58.7765 159.457 58.9489 159.331 59.1527C159.206 59.3722 159.159 59.6073 159.159 59.8895C159.159 60.1717 159.222 60.4068 159.331 60.6263C159.457 60.8458 159.613 61.0025 159.817 61.1279C160.021 61.2533 160.256 61.3004 160.507 61.3004C160.774 61.3004 160.993 61.2377 161.197 61.1279Z" fill="#FCFAF7"/>
<path d="M166.448 58.5255H164.991V61.8802H164.269V58.5255H162.812V57.8984H166.448V58.5255Z" fill="#FCFAF7"/>
<path d="M170.132 59.5915C170.399 59.811 170.524 60.1402 170.524 60.5478C170.524 60.9867 170.383 61.3159 170.085 61.551C169.803 61.7862 169.38 61.8959 168.847 61.8959H167.17V57.9141H167.891V59.2623H168.972C169.49 59.2623 169.866 59.372 170.132 59.5915ZM169.552 61.1435C169.725 61.0024 169.803 60.8143 169.803 60.5478C169.803 60.2813 169.725 60.0931 169.552 59.9834C169.38 59.858 169.145 59.7953 168.8 59.7953L167.891 59.7796V61.3472H168.8C169.145 61.3472 169.38 61.2845 169.552 61.1435ZM171.136 57.8984H171.857V61.8802H171.136V57.8984Z" fill="#FCFAF7"/>
</svg>
