<svg width="272" height="37" viewBox="0 0 272 37" fill="none" xmlns="http://www.w3.org/2000/svg">
<g clip-path="url(#clip0_75_343)">
<mask id="mask0_75_343" style="mask-type:luminance" maskUnits="userSpaceOnUse" x="0" y="0" width="35" height="37">
<path d="M34.0465 0H0V36.9942H34.0465V0Z" fill="white"/>
</mask>
<g mask="url(#mask0_75_343)">
<path d="M33.6978 9.08813L24.9275 0.358438C24.695 0.132969 24.387 0 24.0615 0H1.23214C0.552137 0 0.00581197 0.549219 0.00581197 1.21984V11.5105C0.00581197 11.8342 0.133675 12.1464 0.366154 12.3719L3.23145 15.2163V15.2278L5.8294 17.8063C6.20718 18.182 6.21299 18.7949 5.8294 19.1764C5.02735 19.9742 4.2253 20.772 3.41744 21.5756L0.360342 24.6224C0.127863 24.8478 0 25.16 0 25.4838V34.8089C0 36.0172 0.982222 36.9942 2.19692 36.9942H24.0557C24.3812 36.9942 24.6892 36.8613 24.9217 36.6358L25.8981 35.6588L33.6862 27.9061C33.9186 27.6806 34.0465 27.3685 34.0465 27.0447V9.95532C34.0465 9.63157 33.9186 9.31938 33.6862 9.09391L33.6978 9.08813ZM25.9097 18.6908C25.9097 19.0145 25.7819 19.3267 25.5494 19.5522L20.0803 24.9924C19.8479 25.2178 19.5398 25.3508 19.2144 25.3508H12.9316C12.2516 25.3508 11.7053 24.8016 11.7053 24.131V23.7494C11.7053 23.4256 11.8332 23.1134 12.0656 22.888L15.8085 19.1649C16.2851 18.685 16.2851 17.9161 15.8085 17.442L12.0656 13.7131C11.8332 13.4877 11.7053 13.1755 11.7053 12.8517C11.7053 12.528 11.839 12.21 12.0656 11.9903C12.2865 11.7706 12.5945 11.6319 12.9316 11.6319H19.2144C19.5398 11.6319 19.8479 11.7648 20.0803 11.9903L25.5552 17.442C25.7819 17.6675 25.9097 17.9797 25.9097 18.3034V18.6908Z" fill="#014FDF"/>
</g>
<mask id="mask1_75_343" style="mask-type:luminance" maskUnits="userSpaceOnUse" x="39" y="3" width="233" height="31">
<path d="M271.756 3.08325H39.8584V33.1458H271.756V3.08325Z" fill="white"/>
</mask>
<g mask="url(#mask1_75_343)">
<path d="M40.1152 32.9666V23.8206H41.6147C42.0099 23.5027 42.347 23.0806 42.626 22.5488C42.905 22.0169 43.1316 21.3867 43.306 20.6525C43.4804 19.9183 43.6315 19.0916 43.7477 18.1781C43.864 17.2647 43.9744 16.2703 44.0616 15.195L44.6079 8.52344H58.3126V23.8206H61.2243V32.9666H56.9699V27.4628H44.4568V32.9666H40.1152ZM46.1945 23.8206H54.0756V12.102H48.4205L48.1648 15.2008C48.0079 17.2242 47.787 18.9413 47.5022 20.3692C47.2175 21.7914 46.7816 22.9419 46.1887 23.8264L46.1945 23.8206Z" fill="#000919"/>
<path d="M79.6382 17.8428C79.6382 16.1836 79.4115 14.7498 78.9524 13.5473C78.4932 12.3448 77.8539 11.3562 77.0461 10.5758C76.2324 9.79528 75.3025 9.21716 74.2505 8.84716C73.1985 8.47716 72.0943 8.28638 70.9377 8.28638C69.1244 8.28638 67.5435 8.70263 66.1951 9.53513C64.8526 10.3618 63.8122 11.5123 63.0799 12.9808C62.3476 14.4492 61.9814 16.1604 61.9814 18.1145C61.9814 20.0686 62.3534 21.8029 63.0973 23.2598C63.8413 24.7167 64.9049 25.844 66.2823 26.6476C67.6597 27.4512 69.3103 27.8501 71.2283 27.8501C72.6464 27.8501 73.9076 27.642 75.0177 27.2142C76.122 26.7922 77.0461 26.1967 77.7842 25.4393C78.5223 24.6762 79.0454 23.7859 79.3476 22.7684L75.2792 21.9417C75.0874 22.4736 74.7968 22.9187 74.4132 23.2887C74.0238 23.6529 73.5705 23.9304 73.0416 24.1154C72.5127 24.3004 71.9257 24.3929 71.2806 24.3929C70.3042 24.3929 69.444 24.1848 68.7059 23.7686C67.9678 23.3523 67.3982 22.7279 66.9914 21.907C66.6194 21.167 66.4218 20.2709 66.3869 19.2303H79.6382V17.8428ZM66.4044 16.2298C66.4625 15.5187 66.6368 14.8597 66.9158 14.2584C67.2761 13.4953 67.7934 12.8883 68.4734 12.4315C69.1592 11.9748 69.9845 11.7436 70.9609 11.7436C71.9373 11.7436 72.751 11.969 73.4078 12.42C74.0587 12.8709 74.5469 13.5011 74.8782 14.3104C75.1165 14.8828 75.2676 15.5245 75.3315 16.2298H66.4044Z" fill="#000919"/>
<path d="M79.8682 32.9668V23.8209H81.3677C81.7629 23.5029 82.1 23.0809 82.3789 22.549C82.6579 22.0171 82.8846 21.387 83.0589 20.6528C83.2333 19.9185 83.3844 19.0918 83.5006 18.1784C83.6169 17.2649 83.7273 16.2706 83.8145 15.1953L84.3608 8.52368H98.0654V23.8209H100.977V32.9668H96.7229V27.4631H84.2097V32.9668H79.8682ZM85.9475 23.8209H93.8285V12.1023H88.1735L87.9177 15.201C87.7608 17.2245 87.54 18.9415 87.2552 20.3695C86.9704 21.7917 86.5345 22.9421 85.9417 23.8267L85.9475 23.8209Z" fill="#000919"/>
<path d="M102.308 27.4631V23.8209H102.935C103.424 23.8209 103.842 23.7168 104.185 23.5145C104.534 23.3121 104.813 22.9595 105.033 22.4623C105.254 21.9651 105.429 21.2829 105.551 20.4215C105.673 19.5601 105.766 18.4732 105.824 17.1609L106.167 8.52368H120.336V27.4573H115.908V12.1485H110.392L110.119 18.0743C110.026 20.277 109.741 22.0692 109.259 23.4509C108.776 24.8326 108.085 25.8501 107.184 26.4918C106.283 27.1335 105.15 27.4573 103.79 27.4573H102.308V27.4631Z" fill="#000919"/>
<path d="M127.924 27.8502C126.72 27.8502 125.634 27.6305 124.669 27.1969C123.704 26.7633 122.943 26.1216 122.385 25.2718C121.827 24.4277 121.548 23.3813 121.548 22.1383C121.548 21.063 121.751 20.1785 122.152 19.479C122.553 18.7794 123.1 18.2187 123.785 17.8024C124.471 17.3862 125.244 17.0682 126.11 16.8543C126.97 16.6404 127.871 16.4901 128.801 16.3976C129.9 16.2762 130.8 16.1663 131.492 16.0738C132.184 15.9813 132.695 15.8368 133.015 15.6344C133.335 15.4321 133.497 15.1141 133.497 14.6863V14.5996C133.497 13.981 133.369 13.4491 133.125 13.0155C132.875 12.5819 132.503 12.2466 132.009 12.0154C131.515 11.7841 130.905 11.6685 130.179 11.6685C129.452 11.6685 128.801 11.7841 128.261 12.0096C127.72 12.2351 127.284 12.5299 126.941 12.8883C126.598 13.2526 126.349 13.6399 126.192 14.0562L122.088 13.2237C122.46 12.1079 123.042 11.1829 123.826 10.4544C124.611 9.72601 125.541 9.18257 126.628 8.81834C127.709 8.4599 128.888 8.2749 130.161 8.2749C131.056 8.2749 131.963 8.37896 132.875 8.58709C133.788 8.79521 134.625 9.14788 135.386 9.64507C136.148 10.1423 136.758 10.8071 137.223 11.6454C137.688 12.4837 137.92 13.5301 137.92 14.7962V27.4455H133.683V24.8382H133.515C133.23 25.3701 132.84 25.8615 132.346 26.3182C131.852 26.7749 131.242 27.1449 130.51 27.4166C129.778 27.6883 128.912 27.8329 127.912 27.8329L127.924 27.8502ZM129.069 24.5838C129.987 24.5838 130.777 24.4046 131.446 24.0404C132.108 23.6819 132.625 23.2021 132.997 22.6066C133.364 22.0112 133.55 21.3694 133.55 20.6699V18.4326C133.404 18.5482 133.154 18.6523 132.811 18.7563C132.463 18.8604 132.079 18.9471 131.655 19.028C131.231 19.109 130.806 19.1726 130.394 19.2304C129.981 19.2882 129.632 19.3344 129.348 19.3633C128.691 19.4558 128.092 19.6004 127.557 19.8027C127.023 20.0051 126.604 20.2941 126.308 20.6583C126.006 21.0226 125.855 21.5024 125.855 22.0921C125.855 22.6355 125.994 23.0865 126.273 23.4565C126.552 23.8207 126.93 24.104 127.412 24.2948C127.895 24.4855 128.447 24.5838 129.074 24.5838H129.069Z" fill="#000919"/>
<path d="M156.279 27.4629H151.833V15.4899H151.665L143.475 27.4629H139.628V8.52931H144.057V20.4849H144.225L152.379 8.52931H156.279V27.4629ZM147.951 8.40213C146.905 8.40213 145.963 8.17666 145.126 7.72572C144.283 7.27478 143.621 6.65619 143.127 5.88151C142.633 5.10682 142.389 4.23963 142.389 3.2915H145.132C145.132 4.02573 145.399 4.62697 145.934 5.10103C146.469 5.57509 147.143 5.81213 147.962 5.81213C148.782 5.81213 149.439 5.57509 149.973 5.10103C150.508 4.62697 150.775 4.02573 150.775 3.2915H153.519C153.519 4.23963 153.274 5.10104 152.786 5.87573C152.298 6.65041 151.635 7.26322 150.804 7.71994C149.973 8.17666 149.026 8.40791 147.968 8.40791L147.951 8.40213Z" fill="#000919"/>
<path d="M174.622 8.52368V27.4631H170.17V19.8087H162.394V27.4631H157.965V8.52368H162.394V16.1839H170.17V8.52368H174.622Z" fill="#000919"/>
<path d="M183.828 27.4629V8.5293H191.796C194.034 8.5293 195.807 8.98025 197.12 9.88212C198.434 10.784 199.085 12.0327 199.085 13.6226C199.085 14.6632 198.724 15.5188 198.004 16.1952C197.283 16.8717 196.277 17.3284 194.981 17.5654C195.969 17.6463 196.841 17.8949 197.597 18.317C198.352 18.739 198.945 19.2882 199.375 19.9704C199.805 20.6468 200.02 21.4331 200.02 22.3234C200.02 23.364 199.747 24.2659 199.195 25.0348C198.643 25.8037 197.852 26.3992 196.812 26.8212C195.772 27.2432 194.516 27.4571 193.04 27.4571H183.828V27.4629ZM187.966 16.386H191.884C192.813 16.386 193.54 16.1895 194.063 15.8021C194.586 15.4148 194.848 14.8771 194.848 14.2007C194.848 13.5243 194.58 13.0156 194.04 12.6398C193.499 12.2698 192.755 12.079 191.802 12.079H187.972V16.3802L187.966 16.386ZM187.966 23.971H193.04C193.86 23.971 194.499 23.7745 194.975 23.3756C195.446 22.9824 195.685 22.4506 195.685 21.7857C195.685 20.9937 195.446 20.3751 194.975 19.9299C194.505 19.4848 193.86 19.2593 193.04 19.2593H187.966V23.9652V23.971Z" fill="#000919"/>
<path d="M216.195 8.52344V27.4628H211.766V21.4388C211.342 21.5371 210.9 21.618 210.447 21.6874C209.773 21.7856 209.087 21.8377 208.395 21.8377C205.786 21.8377 203.769 21.2538 202.345 20.0917C200.921 18.9297 200.206 17.1722 200.206 14.825V8.52344H204.635V14.825C204.635 16.0333 204.96 16.9005 205.611 17.4266C206.262 17.9527 207.192 18.2128 208.395 18.2128C209.395 18.2128 210.348 18.1145 211.249 17.918C211.417 17.8833 211.592 17.8428 211.766 17.7966V8.52344H216.195Z" fill="#000919"/>
<path d="M235.288 17.8428C235.288 16.1836 235.061 14.7498 234.596 13.5473C234.137 12.3448 233.503 11.3562 232.69 10.5758C231.882 9.79528 230.946 9.21716 229.9 8.84716C228.848 8.47716 227.744 8.28638 226.587 8.28638C224.774 8.28638 223.193 8.70263 221.845 9.53513C220.502 10.3618 219.462 11.5123 218.729 12.9808C217.997 14.4492 217.631 16.1604 217.631 18.1145C217.631 20.0686 218.003 21.8029 218.747 23.2598C219.491 24.7167 220.548 25.844 221.932 26.6476C223.309 27.4512 224.96 27.8501 226.878 27.8501C228.296 27.8501 229.557 27.642 230.667 27.2142C231.771 26.7922 232.695 26.1967 233.434 25.4393C234.172 24.6762 234.695 23.7859 234.997 22.7684L230.929 21.9417C230.737 22.4736 230.446 22.9187 230.063 23.2887C229.673 23.6529 229.22 23.9304 228.691 24.1154C228.162 24.3004 227.575 24.3929 226.93 24.3929C225.954 24.3929 225.093 24.1848 224.355 23.7686C223.617 23.3523 223.048 22.7279 222.635 21.907C222.269 21.167 222.071 20.2709 222.036 19.2303H235.288V17.8428ZM222.048 16.2298C222.106 15.5187 222.28 14.8597 222.559 14.2584C222.92 13.4953 223.437 12.8883 224.117 12.4315C224.797 11.9748 225.628 11.7436 226.605 11.7436C227.581 11.7436 228.395 11.969 229.046 12.42C229.702 12.8709 230.191 13.5011 230.522 14.3104C230.754 14.8828 230.905 15.5245 230.975 16.2298H222.048Z" fill="#000919"/>
<path d="M236.659 34.5449V8.52927H240.983V11.6627H241.274C241.501 11.2118 241.826 10.7261 242.244 10.2058C242.663 9.68551 243.232 9.24036 243.953 8.8588C244.674 8.48302 245.598 8.29224 246.72 8.29224C248.196 8.29224 249.521 8.66224 250.707 9.40801C251.886 10.1538 252.828 11.2522 253.525 12.7033C254.223 14.1544 254.572 15.9293 254.572 18.0279C254.572 20.1265 254.229 21.8724 253.549 23.3293C252.869 24.7861 251.933 25.8961 250.747 26.6593C249.562 27.4224 248.213 27.804 246.702 27.804C245.621 27.804 244.72 27.619 243.994 27.2547C243.267 26.8905 242.686 26.4454 242.256 25.925C241.826 25.4047 241.495 24.9191 241.268 24.4682H241.082V34.5449H236.653H236.659ZM245.511 24.1791C246.499 24.1791 247.324 23.9132 247.998 23.3755C248.667 22.8379 249.172 22.1036 249.515 21.1729C249.858 20.2421 250.027 19.1899 250.027 18.0163C250.027 16.8427 249.858 15.7963 249.527 14.8771C249.19 13.9579 248.69 13.2352 248.022 12.7091C247.353 12.183 246.516 11.9229 245.517 11.9229C244.517 11.9229 243.715 12.1772 243.046 12.686C242.378 13.1947 241.867 13.9 241.524 14.8135C241.175 15.7211 241.006 16.7907 241.006 18.0221C241.006 19.2535 241.181 20.3288 241.524 21.2596C241.872 22.1846 242.378 22.9072 243.058 23.4218C243.732 23.9363 244.552 24.1907 245.517 24.1907L245.511 24.1791Z" fill="#000919"/>
<path d="M261.644 27.8502C260.441 27.8502 259.354 27.6305 258.39 27.1969C257.425 26.7633 256.663 26.1216 256.105 25.2718C255.548 24.4277 255.269 23.3813 255.269 22.1383C255.269 21.063 255.472 20.1785 255.873 19.479C256.274 18.7794 256.82 18.2187 257.506 17.8024C258.192 17.3862 258.965 17.0682 259.831 16.8543C260.691 16.6404 261.592 16.4901 262.522 16.3976C263.62 16.2762 264.521 16.1663 265.213 16.0738C265.904 15.9813 266.416 15.8368 266.736 15.6344C267.055 15.4321 267.218 15.1141 267.218 14.6863V14.5996C267.218 13.981 267.09 13.4491 266.846 13.0155C266.596 12.5819 266.224 12.2466 265.73 12.0154C265.236 11.7841 264.626 11.6685 263.899 11.6685C263.173 11.6685 262.522 11.7841 261.981 12.0096C261.441 12.2351 261.005 12.5299 260.662 12.8883C260.319 13.2526 260.069 13.6399 259.912 14.0562L255.809 13.2237C256.181 12.1079 256.762 11.1829 257.547 10.4544C258.331 9.72601 259.261 9.18257 260.348 8.81834C261.429 8.4599 262.609 8.2749 263.882 8.2749C264.777 8.2749 265.684 8.37896 266.596 8.58709C267.509 8.79521 268.345 9.14788 269.107 9.64507C269.868 10.1423 270.478 10.8071 270.943 11.6454C271.408 12.4837 271.641 13.5301 271.641 14.7962V27.4455H267.404V24.8382H267.235C266.951 25.3701 266.561 25.8615 266.067 26.3182C265.573 26.7749 264.963 27.1449 264.231 27.4166C263.498 27.6883 262.632 27.8329 261.633 27.8329L261.644 27.8502ZM262.783 24.5838C263.702 24.5838 264.492 24.4046 265.161 24.0404C265.823 23.6819 266.34 23.2021 266.712 22.6066C267.078 22.0112 267.264 21.3694 267.264 20.6699V18.4326C267.119 18.5482 266.869 18.6523 266.526 18.7563C266.178 18.8604 265.794 18.9471 265.37 19.028C264.945 19.109 264.521 19.1726 264.109 19.2304C263.696 19.2882 263.347 19.3344 263.062 19.3633C262.406 19.4558 261.807 19.6004 261.272 19.8027C260.738 20.0051 260.319 20.2941 260.023 20.6583C259.721 21.0226 259.569 21.5024 259.569 22.0921C259.569 22.6355 259.709 23.0865 259.988 23.4565C260.267 23.8207 260.645 24.104 261.127 24.2948C261.609 24.4855 262.162 24.5838 262.789 24.5838H262.783Z" fill="#000919"/>
</g>
</g>
<defs>
<clipPath id="clip0_75_343">
<rect width="272" height="37" fill="white"/>
</clipPath>
</defs>
</svg>
